<svg width="139" height="26" viewBox="0 0 139 26" fill="none" xmlns="http://www.w3.org/2000/svg">
<path d="M0.89813 25V2.56H11.8121C14.5775 2.56 16.6175 3.08133 17.9321 4.124C19.2468 5.16667 19.9041 6.66267 19.9041 8.612C19.9041 9.88133 19.5301 10.9807 18.7821 11.91C18.0341 12.8393 16.8895 13.4173 15.3481 13.644V13.678C17.0708 13.9047 18.3515 14.5053 19.1901 15.48C20.0515 16.432 20.4821 17.588 20.4821 18.948C20.4821 20.8747 19.7908 22.3707 18.4081 23.436C17.0481 24.4787 15.0195 25 12.3221 25H0.89813ZM6.54213 11.74H10.7921C12.8775 11.74 13.9201 10.924 13.9201 9.292C13.9201 7.66 12.8775 6.844 10.7921 6.844H6.54213V11.74ZM6.54213 20.886H11.3361C13.4441 20.886 14.4981 20.0473 14.4981 18.37C14.4981 16.738 13.4441 15.922 11.3361 15.922H6.54213V20.886ZM32.5383 14.222C32.5383 13.4287 32.3117 12.8053 31.8583 12.352C31.4277 11.876 30.8383 11.638 30.0903 11.638C29.3423 11.638 28.6963 11.8307 28.1523 12.216C27.631 12.5787 27.2683 13.236 27.0643 14.188L22.1683 13.032C22.4857 11.4 23.3243 10.0967 24.6843 9.122C26.0443 8.14733 27.9597 7.66 30.4303 7.66C32.9237 7.66 34.8503 8.21533 36.2103 9.326C37.593 10.414 38.2843 12.012 38.2843 14.12V20.342C38.2843 21.226 38.681 21.668 39.4743 21.668C39.8823 21.668 40.211 21.6227 40.4603 21.532L40.1203 24.83C39.4403 25.1473 38.613 25.306 37.6383 25.306C36.573 25.306 35.655 25.102 34.8843 24.694C34.1137 24.2633 33.5923 23.6173 33.3203 22.756C32.8443 23.64 32.085 24.2973 31.0423 24.728C30.0223 25.136 28.9343 25.34 27.7783 25.34C26.033 25.34 24.639 24.9433 23.5963 24.15C22.5763 23.334 22.0663 22.1667 22.0663 20.648C22.0663 19.424 22.429 18.4153 23.1543 17.622C23.9023 16.806 25.0697 16.2393 26.6563 15.922L32.5383 14.698V14.222ZM27.7783 20.104C27.7783 20.6027 27.9597 20.9767 28.3223 21.226C28.685 21.4753 29.1157 21.6 29.6143 21.6C30.385 21.6 31.065 21.3733 31.6543 20.92C32.2437 20.444 32.5383 19.7073 32.5383 18.71V17.758L29.7843 18.336C29.1043 18.472 28.5943 18.676 28.2543 18.948C27.937 19.1973 27.7783 19.5827 27.7783 20.104ZM42.0618 25V8H47.1618L47.3998 11.672C47.8078 10.4253 48.4311 9.45067 49.2698 8.748C50.1311 8.02267 51.2304 7.66 52.5678 7.66C52.9984 7.66 53.3611 7.70533 53.6558 7.796C53.9731 7.864 54.2224 7.94333 54.4038 8.034L53.8258 12.794C53.5991 12.726 53.3044 12.658 52.9418 12.59C52.6018 12.522 52.1824 12.488 51.6838 12.488C50.6411 12.488 49.7344 12.8167 48.9638 13.474C48.2158 14.1313 47.8418 15.1173 47.8418 16.432V25H42.0618ZM63.8499 7.66C65.5726 7.66 67.0006 7.90933 68.1339 8.408C69.2899 8.90667 70.1853 9.55267 70.8199 10.346C71.4546 11.1393 71.8626 12.0007 72.0439 12.93L66.7059 14.698C66.5699 13.7233 66.2866 12.998 65.8559 12.522C65.4253 12.0233 64.8133 11.774 64.0199 11.774C62.9319 11.774 62.1046 12.1593 61.5379 12.93C60.9939 13.7007 60.7219 14.9133 60.7219 16.568C60.7219 18.2453 61.0166 19.4467 61.6059 20.172C62.2179 20.8747 63.0339 21.226 64.0539 21.226C65.6633 21.226 66.6039 20.308 66.8759 18.472L72.0779 20.138C71.8286 21.6113 71.0013 22.8467 69.5959 23.844C68.2133 24.8413 66.3773 25.34 64.0879 25.34C61.2999 25.34 59.0673 24.5693 57.3899 23.028C55.7353 21.464 54.9079 19.288 54.9079 16.5C54.9079 14.6413 55.2819 13.0547 56.0299 11.74C56.8006 10.4253 57.8546 9.41667 59.1919 8.714C60.5293 8.01133 62.0819 7.66 63.8499 7.66ZM82.6989 25.34C79.8656 25.34 77.6216 24.5693 75.9669 23.028C74.3349 21.4867 73.5189 19.3107 73.5189 16.5C73.5189 14.6413 73.8929 13.0547 74.6409 11.74C75.4116 10.4027 76.4543 9.394 77.7689 8.714C79.1063 8.01133 80.6589 7.66 82.4269 7.66C84.2176 7.66 85.7363 8.01133 86.9829 8.714C88.2523 9.394 89.2156 10.346 89.8729 11.57C90.5303 12.7713 90.8589 14.154 90.8589 15.718C90.8589 16.1487 90.8363 16.568 90.7909 16.976C90.7683 17.3613 90.7456 17.69 90.7229 17.962H79.1289C79.2876 19.1407 79.6729 19.9907 80.2849 20.512C80.8969 21.0107 81.7016 21.26 82.6989 21.26C83.5603 21.26 84.2403 21.09 84.7389 20.75C85.2603 20.41 85.6456 19.934 85.8949 19.322L90.5189 20.852C90.2016 21.8267 89.6463 22.654 88.8529 23.334C88.0823 23.9913 87.1529 24.49 86.0649 24.83C84.9996 25.17 83.8776 25.34 82.6989 25.34ZM82.4269 11.706C80.5909 11.706 79.5029 12.76 79.1629 14.868H85.3849C85.1356 12.76 84.1496 11.706 82.4269 11.706ZM99.1244 0.792V19.22C99.1244 19.968 99.2491 20.5007 99.4984 20.818C99.7477 21.1353 100.167 21.294 100.756 21.294C101.096 21.294 101.38 21.2713 101.606 21.226C101.833 21.1807 102.105 21.1127 102.422 21.022L102.048 24.49C101.64 24.7393 101.108 24.9433 100.45 25.102C99.7931 25.2607 99.1471 25.34 98.5124 25.34C96.6991 25.34 95.3844 24.9207 94.5684 24.082C93.7524 23.2433 93.3444 21.872 93.3444 19.968V0.792H99.1244ZM111.947 7.66C113.738 7.66 115.302 8.01133 116.639 8.714C117.999 9.41667 119.053 10.4253 119.801 11.74C120.572 13.0547 120.957 14.6413 120.957 16.5C120.957 18.3587 120.572 19.9453 119.801 21.26C119.053 22.5747 117.999 23.5833 116.639 24.286C115.302 24.9887 113.738 25.34 111.947 25.34C110.179 25.34 108.615 24.9887 107.255 24.286C105.918 23.5833 104.864 22.5747 104.093 21.26C103.345 19.9453 102.971 18.3587 102.971 16.5C102.971 14.6413 103.345 13.0547 104.093 11.74C104.864 10.4253 105.918 9.41667 107.255 8.714C108.615 8.01133 110.179 7.66 111.947 7.66ZM111.947 11.774C110.95 11.774 110.168 12.148 109.601 12.896C109.057 13.6213 108.785 14.8227 108.785 16.5C108.785 18.1547 109.057 19.356 109.601 20.104C110.168 20.852 110.95 21.226 111.947 21.226C112.967 21.226 113.749 20.852 114.293 20.104C114.86 19.356 115.143 18.1547 115.143 16.5C115.143 14.8227 114.86 13.6213 114.293 12.896C113.749 12.148 112.967 11.774 111.947 11.774ZM130.669 25.34C128.969 25.34 127.394 25.068 125.943 24.524C124.492 23.9573 123.28 23.1527 122.305 22.11L125.025 18.914C125.592 19.6393 126.34 20.2513 127.269 20.75C128.221 21.226 129.275 21.464 130.431 21.464C131.134 21.464 131.712 21.362 132.165 21.158C132.618 20.954 132.845 20.6367 132.845 20.206C132.845 19.9113 132.732 19.662 132.505 19.458C132.278 19.254 131.825 19.084 131.145 18.948L128.765 18.472C126.634 18.0413 125.116 17.4067 124.209 16.568C123.325 15.7067 122.883 14.5847 122.883 13.202C122.883 12.2727 123.166 11.3887 123.733 10.55C124.3 9.71133 125.172 9.02 126.351 8.476C127.53 7.932 129.037 7.66 130.873 7.66C134.386 7.66 136.948 8.63467 138.557 10.584L135.803 13.712C135.259 13.032 134.556 12.4993 133.695 12.114C132.834 11.7287 131.972 11.536 131.111 11.536C129.456 11.536 128.629 11.9553 128.629 12.794C128.629 13.0887 128.765 13.3493 129.037 13.576C129.332 13.8027 129.864 13.984 130.635 14.12L133.729 14.732C135.474 15.072 136.732 15.6613 137.503 16.5C138.274 17.316 138.659 18.3133 138.659 19.492C138.659 21.1467 137.99 22.5407 136.653 23.674C135.338 24.7847 133.344 25.34 130.669 25.34Z" fill="#FEAFBE" fill-opacity="0.91"/>
<path d="M0.89813 25V2.56H11.8121C14.5775 2.56 16.6175 3.08133 17.9321 4.124C19.2468 5.16667 19.9041 6.66267 19.9041 8.612C19.9041 9.88133 19.5301 10.9807 18.7821 11.91C18.0341 12.8393 16.8895 13.4173 15.3481 13.644V13.678C17.0708 13.9047 18.3515 14.5053 19.1901 15.48C20.0515 16.432 20.4821 17.588 20.4821 18.948C20.4821 20.8747 19.7908 22.3707 18.4081 23.436C17.0481 24.4787 15.0195 25 12.3221 25H0.89813ZM6.54213 11.74H10.7921C12.8775 11.74 13.9201 10.924 13.9201 9.292C13.9201 7.66 12.8775 6.844 10.7921 6.844H6.54213V11.74ZM6.54213 20.886H11.3361C13.4441 20.886 14.4981 20.0473 14.4981 18.37C14.4981 16.738 13.4441 15.922 11.3361 15.922H6.54213V20.886ZM32.5383 14.222C32.5383 13.4287 32.3117 12.8053 31.8583 12.352C31.4277 11.876 30.8383 11.638 30.0903 11.638C29.3423 11.638 28.6963 11.8307 28.1523 12.216C27.631 12.5787 27.2683 13.236 27.0643 14.188L22.1683 13.032C22.4857 11.4 23.3243 10.0967 24.6843 9.122C26.0443 8.14733 27.9597 7.66 30.4303 7.66C32.9237 7.66 34.8503 8.21533 36.2103 9.326C37.593 10.414 38.2843 12.012 38.2843 14.12V20.342C38.2843 21.226 38.681 21.668 39.4743 21.668C39.8823 21.668 40.211 21.6227 40.4603 21.532L40.1203 24.83C39.4403 25.1473 38.613 25.306 37.6383 25.306C36.573 25.306 35.655 25.102 34.8843 24.694C34.1137 24.2633 33.5923 23.6173 33.3203 22.756C32.8443 23.64 32.085 24.2973 31.0423 24.728C30.0223 25.136 28.9343 25.34 27.7783 25.34C26.033 25.34 24.639 24.9433 23.5963 24.15C22.5763 23.334 22.0663 22.1667 22.0663 20.648C22.0663 19.424 22.429 18.4153 23.1543 17.622C23.9023 16.806 25.0697 16.2393 26.6563 15.922L32.5383 14.698V14.222ZM27.7783 20.104C27.7783 20.6027 27.9597 20.9767 28.3223 21.226C28.685 21.4753 29.1157 21.6 29.6143 21.6C30.385 21.6 31.065 21.3733 31.6543 20.92C32.2437 20.444 32.5383 19.7073 32.5383 18.71V17.758L29.7843 18.336C29.1043 18.472 28.5943 18.676 28.2543 18.948C27.937 19.1973 27.7783 19.5827 27.7783 20.104ZM42.0618 25V8H47.1618L47.3998 11.672C47.8078 10.4253 48.4311 9.45067 49.2698 8.748C50.1311 8.02267 51.2304 7.66 52.5678 7.66C52.9984 7.66 53.3611 7.70533 53.6558 7.796C53.9731 7.864 54.2224 7.94333 54.4038 8.034L53.8258 12.794C53.5991 12.726 53.3044 12.658 52.9418 12.59C52.6018 12.522 52.1824 12.488 51.6838 12.488C50.6411 12.488 49.7344 12.8167 48.9638 13.474C48.2158 14.1313 47.8418 15.1173 47.8418 16.432V25H42.0618ZM63.8499 7.66C65.5726 7.66 67.0006 7.90933 68.1339 8.408C69.2899 8.90667 70.1853 9.55267 70.8199 10.346C71.4546 11.1393 71.8626 12.0007 72.0439 12.93L66.7059 14.698C66.5699 13.7233 66.2866 12.998 65.8559 12.522C65.4253 12.0233 64.8133 11.774 64.0199 11.774C62.9319 11.774 62.1046 12.1593 61.5379 12.93C60.9939 13.7007 60.7219 14.9133 60.7219 16.568C60.7219 18.2453 61.0166 19.4467 61.6059 20.172C62.2179 20.8747 63.0339 21.226 64.0539 21.226C65.6633 21.226 66.6039 20.308 66.8759 18.472L72.0779 20.138C71.8286 21.6113 71.0013 22.8467 69.5959 23.844C68.2133 24.8413 66.3773 25.34 64.0879 25.34C61.2999 25.34 59.0673 24.5693 57.3899 23.028C55.7353 21.464 54.9079 19.288 54.9079 16.5C54.9079 14.6413 55.2819 13.0547 56.0299 11.74C56.8006 10.4253 57.8546 9.41667 59.1919 8.714C60.5293 8.01133 62.0819 7.66 63.8499 7.66ZM82.6989 25.34C79.8656 25.34 77.6216 24.5693 75.9669 23.028C74.3349 21.4867 73.5189 19.3107 73.5189 16.5C73.5189 14.6413 73.8929 13.0547 74.6409 11.74C75.4116 10.4027 76.4543 9.394 77.7689 8.714C79.1063 8.01133 80.6589 7.66 82.4269 7.66C84.2176 7.66 85.7363 8.01133 86.9829 8.714C88.2523 9.394 89.2156 10.346 89.8729 11.57C90.5303 12.7713 90.8589 14.154 90.8589 15.718C90.8589 16.1487 90.8363 16.568 90.7909 16.976C90.7683 17.3613 90.7456 17.69 90.7229 17.962H79.1289C79.2876 19.1407 79.6729 19.9907 80.2849 20.512C80.8969 21.0107 81.7016 21.26 82.6989 21.26C83.5603 21.26 84.2403 21.09 84.7389 20.75C85.2603 20.41 85.6456 19.934 85.8949 19.322L90.5189 20.852C90.2016 21.8267 89.6463 22.654 88.8529 23.334C88.0823 23.9913 87.1529 24.49 86.0649 24.83C84.9996 25.17 83.8776 25.34 82.6989 25.34ZM82.4269 11.706C80.5909 11.706 79.5029 12.76 79.1629 14.868H85.3849C85.1356 12.76 84.1496 11.706 82.4269 11.706ZM99.1244 0.792V19.22C99.1244 19.968 99.2491 20.5007 99.4984 20.818C99.7477 21.1353 100.167 21.294 100.756 21.294C101.096 21.294 101.38 21.2713 101.606 21.226C101.833 21.1807 102.105 21.1127 102.422 21.022L102.048 24.49C101.64 24.7393 101.108 24.9433 100.45 25.102C99.7931 25.2607 99.1471 25.34 98.5124 25.34C96.6991 25.34 95.3844 24.9207 94.5684 24.082C93.7524 23.2433 93.3444 21.872 93.3444 19.968V0.792H99.1244ZM111.947 7.66C113.738 7.66 115.302 8.01133 116.639 8.714C117.999 9.41667 119.053 10.4253 119.801 11.74C120.572 13.0547 120.957 14.6413 120.957 16.5C120.957 18.3587 120.572 19.9453 119.801 21.26C119.053 22.5747 117.999 23.5833 116.639 24.286C115.302 24.9887 113.738 25.34 111.947 25.34C110.179 25.34 108.615 24.9887 107.255 24.286C105.918 23.5833 104.864 22.5747 104.093 21.26C103.345 19.9453 102.971 18.3587 102.971 16.5C102.971 14.6413 103.345 13.0547 104.093 11.74C104.864 10.4253 105.918 9.41667 107.255 8.714C108.615 8.01133 110.179 7.66 111.947 7.66ZM111.947 11.774C110.95 11.774 110.168 12.148 109.601 12.896C109.057 13.6213 108.785 14.8227 108.785 16.5C108.785 18.1547 109.057 19.356 109.601 20.104C110.168 20.852 110.95 21.226 111.947 21.226C112.967 21.226 113.749 20.852 114.293 20.104C114.86 19.356 115.143 18.1547 115.143 16.5C115.143 14.8227 114.86 13.6213 114.293 12.896C113.749 12.148 112.967 11.774 111.947 11.774ZM130.669 25.34C128.969 25.34 127.394 25.068 125.943 24.524C124.492 23.9573 123.28 23.1527 122.305 22.11L125.025 18.914C125.592 19.6393 126.34 20.2513 127.269 20.75C128.221 21.226 129.275 21.464 130.431 21.464C131.134 21.464 131.712 21.362 132.165 21.158C132.618 20.954 132.845 20.6367 132.845 20.206C132.845 19.9113 132.732 19.662 132.505 19.458C132.278 19.254 131.825 19.084 131.145 18.948L128.765 18.472C126.634 18.0413 125.116 17.4067 124.209 16.568C123.325 15.7067 122.883 14.5847 122.883 13.202C122.883 12.2727 123.166 11.3887 123.733 10.55C124.3 9.71133 125.172 9.02 126.351 8.476C127.53 7.932 129.037 7.66 130.873 7.66C134.386 7.66 136.948 8.63467 138.557 10.584L135.803 13.712C135.259 13.032 134.556 12.4993 133.695 12.114C132.834 11.7287 131.972 11.536 131.111 11.536C129.456 11.536 128.629 11.9553 128.629 12.794C128.629 13.0887 128.765 13.3493 129.037 13.576C129.332 13.8027 129.864 13.984 130.635 14.12L133.729 14.732C135.474 15.072 136.732 15.6613 137.503 16.5C138.274 17.316 138.659 18.3133 138.659 19.492C138.659 21.1467 137.99 22.5407 136.653 23.674C135.338 24.7847 133.344 25.34 130.669 25.34Z" fill="#5029A3" fill-opacity="0.47"/>
<path d="M0.89813 25H-0.10187V26H0.89813V25ZM0.89813 2.56V1.56H-0.10187V2.56H0.89813ZM17.9321 4.124L17.3107 4.9075L17.3107 4.9075L17.9321 4.124ZM15.3481 13.644L15.2026 12.6546L14.3481 12.7803V13.644H15.3481ZM15.3481 13.678H14.3481V14.555L15.2177 14.6695L15.3481 13.678ZM19.1901 15.48L18.4321 16.1322L18.4402 16.1417L18.4486 16.1509L19.1901 15.48ZM18.4081 23.436L19.0166 24.2296L19.0185 24.2281L18.4081 23.436ZM6.54213 11.74H5.54213V12.74H6.54213V11.74ZM6.54213 6.844V5.844H5.54213V6.844H6.54213ZM6.54213 20.886H5.54213V21.886H6.54213V20.886ZM6.54213 15.922V14.922H5.54213V15.922H6.54213ZM1.89813 25V2.56H-0.10187V25H1.89813ZM0.89813 3.56H11.8121V1.56H0.89813V3.56ZM11.8121 3.56C14.4864 3.56 16.2554 4.07047 17.3107 4.9075L18.5535 3.3405C16.9796 2.0922 14.6685 1.56 11.8121 1.56V3.56ZM17.3107 4.9075C18.3459 5.72847 18.9041 6.91243 18.9041 8.612H20.9041C20.9041 6.41291 20.1477 4.60486 18.5535 3.3405L17.3107 4.9075ZM18.9041 8.612C18.9041 9.66894 18.5986 10.5432 18.0031 11.283L19.5611 12.537C20.4617 11.4181 20.9041 10.0937 20.9041 8.612H18.9041ZM18.0031 11.283C17.4566 11.962 16.5731 12.4531 15.2026 12.6546L15.4936 14.6334C17.2058 14.3816 18.6116 13.7167 19.5611 12.537L18.0031 11.283ZM14.3481 13.644V13.678H16.3481V13.644H14.3481ZM15.2177 14.6695C16.7832 14.8754 17.8029 15.401 18.4321 16.1322L19.9481 14.8278C18.9 13.6097 17.3584 12.9339 15.4786 12.6865L15.2177 14.6695ZM18.4486 16.1509C19.1331 16.9075 19.4821 17.8199 19.4821 18.948H21.4821C21.4821 17.3561 20.9698 15.9565 19.9317 14.8091L18.4486 16.1509ZM19.4821 18.948C19.4821 20.6014 18.9069 21.7893 17.7978 22.6439L19.0185 24.2281C20.6747 22.952 21.4821 21.1479 21.4821 18.948H19.4821ZM17.7997 22.6424C16.6892 23.4938 14.9175 24 12.3221 24V26C15.1214 26 17.4071 25.4635 19.0166 24.2296L17.7997 22.6424ZM12.3221 24H0.89813V26H12.3221V24ZM6.54213 12.74H10.7921V10.74H6.54213V12.74ZM10.7921 12.74C11.9379 12.74 12.9814 12.5205 13.7544 11.9155C14.5741 11.274 14.9201 10.3364 14.9201 9.292H12.9201C12.9201 9.87957 12.7448 10.166 12.5218 10.3405C12.2522 10.5515 11.7317 10.74 10.7921 10.74V12.74ZM14.9201 9.292C14.9201 8.24757 14.5741 7.30996 13.7544 6.66849C12.9814 6.06352 11.9379 5.844 10.7921 5.844V7.844C11.7317 7.844 12.2522 8.03248 12.5218 8.2435C12.7448 8.41804 12.9201 8.70443 12.9201 9.292H14.9201ZM10.7921 5.844H6.54213V7.844H10.7921V5.844ZM5.54213 6.844V11.74H7.54213V6.844H5.54213ZM6.54213 21.886H11.3361V19.886H6.54213V21.886ZM11.3361 21.886C12.496 21.886 13.5508 21.6597 14.3303 21.0395C15.1533 20.3846 15.4981 19.4312 15.4981 18.37H13.4981C13.4981 18.9861 13.3159 19.2907 13.085 19.4745C12.8104 19.693 12.2842 19.886 11.3361 19.886V21.886ZM15.4981 18.37C15.4981 17.3217 15.1465 16.3833 14.3198 15.7433C13.5417 15.1408 12.4914 14.922 11.3361 14.922V16.922C12.2889 16.922 12.8196 17.1112 13.0955 17.3247C13.3227 17.5007 13.4981 17.7863 13.4981 18.37H15.4981ZM11.3361 14.922H6.54213V16.922H11.3361V14.922ZM5.54213 15.922V20.886H7.54213V15.922H5.54213ZM31.8583 12.352L31.1168 13.0229L31.1335 13.0414L31.1512 13.0591L31.8583 12.352ZM28.1523 12.216L28.7234 13.0369L28.7303 13.032L28.1523 12.216ZM27.0643 14.188L26.8345 15.1612L27.8282 15.3959L28.0421 14.3975L27.0643 14.188ZM22.1683 13.032L21.1867 12.8411L21.0033 13.7844L21.9385 14.0052L22.1683 13.032ZM24.6843 9.122L25.2668 9.93482L25.2668 9.93482L24.6843 9.122ZM36.2103 9.326L35.5778 10.1005L35.5848 10.1063L35.5919 10.1119L36.2103 9.326ZM40.4603 21.532L41.455 21.6345L41.6187 20.0467L40.1186 20.5922L40.4603 21.532ZM40.1203 24.83L40.5432 25.7362L41.0569 25.4965L41.115 24.9325L40.1203 24.83ZM34.8843 24.694L34.3965 25.5669L34.4064 25.5725L34.4164 25.5778L34.8843 24.694ZM33.3203 22.756L34.2739 22.4549L33.5615 20.1989L32.4398 22.2819L33.3203 22.756ZM31.0423 24.728L31.4137 25.6565L31.4241 25.6523L31.0423 24.728ZM23.5963 24.15L22.9716 24.9309L22.9811 24.9385L22.9908 24.9458L23.5963 24.15ZM23.1543 17.622L22.4172 16.9463L22.4163 16.9472L23.1543 17.622ZM26.6563 15.922L26.8524 16.9026L26.86 16.901L26.6563 15.922ZM32.5383 14.698L32.742 15.677L33.5383 15.5113V14.698H32.5383ZM28.3223 21.226L28.8888 20.402L28.8888 20.402L28.3223 21.226ZM31.6543 20.92L32.264 21.7126L32.2734 21.7054L32.2827 21.6979L31.6543 20.92ZM32.5383 17.758H33.5383V16.5263L32.3329 16.7793L32.5383 17.758ZM29.7843 18.336L29.9804 19.3166L29.9897 19.3147L29.7843 18.336ZM28.2543 18.948L28.8722 19.7343L28.879 19.7289L28.2543 18.948ZM33.5383 14.222C33.5383 13.2302 33.2487 12.3282 32.5654 11.6449L31.1512 13.0591C31.3746 13.2825 31.5383 13.6271 31.5383 14.222H33.5383ZM32.5999 11.6811C31.9477 10.9603 31.0696 10.638 30.0903 10.638V12.638C30.607 12.638 30.9076 12.7917 31.1168 13.0229L32.5999 11.6811ZM30.0903 10.638C29.1616 10.638 28.3076 10.8806 27.5743 11.4L28.7303 13.032C29.0851 12.7808 29.523 12.638 30.0903 12.638V10.638ZM27.5813 11.3951C26.7645 11.9632 26.3162 12.9067 26.0865 13.9785L28.0421 14.3975C28.2205 13.5653 28.4974 13.1941 28.7234 13.0369L27.5813 11.3951ZM27.2941 13.2148L22.3981 12.0588L21.9385 14.0052L26.8345 15.1612L27.2941 13.2148ZM23.1499 13.2229C23.4182 11.8433 24.1129 10.7618 25.2668 9.93482L24.1018 8.30918C22.5357 9.43154 21.5531 10.9567 21.1867 12.8411L23.1499 13.2229ZM25.2668 9.93482C26.3935 9.12739 28.0739 8.66 30.4303 8.66V6.66C27.8454 6.66 25.6952 7.16728 24.1018 8.30918L25.2668 9.93482ZM30.4303 8.66C32.7881 8.66 34.4582 9.18617 35.5778 10.1005L36.8429 8.55147C35.2425 7.24449 33.0592 6.66 30.4303 6.66V8.66ZM35.5919 10.1119C36.685 10.972 37.2843 12.2509 37.2843 14.12H39.2843C39.2843 11.7731 38.501 9.85601 36.8287 8.54013L35.5919 10.1119ZM37.2843 14.12V20.342H39.2843V14.12H37.2843ZM37.2843 20.342C37.2843 20.913 37.4101 21.5281 37.8376 22.0044C38.2835 22.5013 38.8939 22.668 39.4743 22.668V20.668C39.3663 20.668 39.3153 20.6527 39.3019 20.6477C39.2943 20.6449 39.3096 20.6502 39.3261 20.6686C39.3569 20.7029 39.2843 20.655 39.2843 20.342H37.2843ZM39.4743 22.668C39.943 22.668 40.4007 22.6177 40.8021 22.4718L40.1186 20.5922C40.0212 20.6276 39.8216 20.668 39.4743 20.668V22.668ZM39.4656 21.4295L39.1256 24.7275L41.115 24.9325L41.455 21.6345L39.4656 21.4295ZM39.6974 23.9238C39.1832 24.1638 38.5088 24.306 37.6383 24.306V26.306C38.7172 26.306 39.6974 26.1309 40.5432 25.7362L39.6974 23.9238ZM37.6383 24.306C36.7004 24.306 35.9501 24.1268 35.3522 23.8102L34.4164 25.5778C35.3598 26.0772 36.4456 26.306 37.6383 26.306V24.306ZM35.3721 23.8211C34.8296 23.5178 34.4711 23.0795 34.2739 22.4549L32.3667 23.0571C32.7135 24.1552 33.3977 25.0088 34.3965 25.5669L35.3721 23.8211ZM32.4398 22.2819C32.0867 22.9377 31.518 23.4496 30.6606 23.8037L31.4241 25.6523C32.652 25.1451 33.6019 24.3423 34.2008 23.2301L32.4398 22.2819ZM30.6709 23.7995C29.7752 24.1578 28.8138 24.34 27.7783 24.34V26.34C29.0548 26.34 30.2695 26.1142 31.4137 25.6565L30.6709 23.7995ZM27.7783 24.34C26.1794 24.34 25.0205 23.9771 24.2018 23.3542L22.9908 24.9458C24.2574 25.9096 25.8865 26.34 27.7783 26.34V24.34ZM24.221 23.3691C23.4784 22.775 23.0663 21.9183 23.0663 20.648H21.0663C21.0663 22.415 21.6743 23.893 22.9716 24.9309L24.221 23.3691ZM23.0663 20.648C23.0663 19.6366 23.359 18.8801 23.8923 18.2968L22.4163 16.9472C21.4989 17.9506 21.0663 19.2114 21.0663 20.648H23.0663ZM23.8915 18.2977C24.4435 17.6955 25.3819 17.1967 26.8524 16.9026L26.4602 14.9414C24.7574 15.282 23.3611 15.9165 22.4172 16.9463L23.8915 18.2977ZM26.86 16.901L32.742 15.677L32.3346 13.719L26.4526 14.943L26.86 16.901ZM33.5383 14.698V14.222H31.5383V14.698H33.5383ZM26.7783 20.104C26.7783 20.881 27.0823 21.587 27.7558 22.05L28.8888 20.402C28.837 20.3663 28.7783 20.3243 28.7783 20.104H26.7783ZM27.7558 22.05C28.3067 22.4288 28.9412 22.6 29.6143 22.6V20.6C29.2901 20.6 29.0632 20.5218 28.8888 20.402L27.7558 22.05ZM29.6143 22.6C30.5969 22.6 31.4931 22.3056 32.264 21.7126L31.0446 20.1274C30.6368 20.4411 30.1731 20.6 29.6143 20.6V22.6ZM32.2827 21.6979C33.1768 20.9757 33.5383 19.9067 33.5383 18.71H31.5383C31.5383 19.508 31.3105 19.9123 31.026 20.1421L32.2827 21.6979ZM33.5383 18.71V17.758H31.5383V18.71H33.5383ZM32.3329 16.7793L29.5789 17.3573L29.9897 19.3147L32.7437 18.7367L32.3329 16.7793ZM29.5882 17.3554C28.8347 17.5061 28.1472 17.7531 27.6296 18.1671L28.879 19.7289C29.0415 19.5989 29.3739 19.4379 29.9804 19.3166L29.5882 17.3554ZM27.6365 18.1617C27.0104 18.6536 26.7783 19.3732 26.7783 20.104H28.7783C28.7783 19.7921 28.8635 19.7411 28.8721 19.7343L27.6365 18.1617ZM42.0618 25H41.0618V26H42.0618V25ZM42.0618 8V7H41.0618V8H42.0618ZM47.1618 8L48.1597 7.93532L48.0991 7H47.1618V8ZM47.3998 11.672L46.4019 11.7367L48.3502 11.983L47.3998 11.672ZM49.2698 8.748L49.912 9.51452L49.9139 9.51291L49.2698 8.748ZM53.6558 7.796L53.3617 8.75178L53.4035 8.76464L53.4462 8.7738L53.6558 7.796ZM54.4038 8.034L55.3965 8.15454L55.4814 7.4548L54.851 7.13957L54.4038 8.034ZM53.8258 12.794L53.5384 13.7518L54.6754 14.0929L54.8185 12.9145L53.8258 12.794ZM52.9418 12.59L52.7456 13.5707L52.7575 13.5729L52.9418 12.59ZM48.9638 13.474L48.3148 12.7132L48.3092 12.718L48.3037 12.7228L48.9638 13.474ZM47.8418 25V26H48.8418V25H47.8418ZM43.0618 25V8H41.0618V25H43.0618ZM42.0618 9H47.1618V7H42.0618V9ZM46.1639 8.06468L46.4019 11.7367L48.3977 11.6073L48.1597 7.93532L46.1639 8.06468ZM48.3502 11.983C48.7117 10.8784 49.2428 10.0752 49.912 9.51452L48.6276 7.98148C47.6194 8.82618 46.9039 9.97227 46.4494 11.361L48.3502 11.983ZM49.9139 9.51291C50.5624 8.96678 51.4198 8.66 52.5678 8.66V6.66C51.041 6.66 49.6998 7.07855 48.6256 7.98309L49.9139 9.51291ZM52.5678 8.66C52.9351 8.66 53.1917 8.69948 53.3617 8.75178L53.9499 6.84022C53.5305 6.71118 53.0618 6.66 52.5678 6.66V8.66ZM53.4462 8.7738C53.7241 8.83335 53.8818 8.89104 53.9566 8.92843L54.851 7.13957C54.5631 6.99562 54.2221 6.89465 53.8653 6.8182L53.4462 8.7738ZM53.4111 7.91346L52.8331 12.6735L54.8185 12.9145L55.3965 8.15454L53.4111 7.91346ZM54.1131 11.8362C53.8393 11.754 53.5066 11.6785 53.1261 11.6071L52.7575 13.5729C53.1023 13.6375 53.3589 13.698 53.5384 13.7518L54.1131 11.8362ZM53.1379 11.6094C52.712 11.5242 52.2223 11.488 51.6838 11.488V13.488C52.1426 13.488 52.4915 13.5197 52.7457 13.5706L53.1379 11.6094ZM51.6838 11.488C50.4109 11.488 49.2722 11.8966 48.3148 12.7132L49.6127 14.2348C50.1967 13.7368 50.8713 13.488 51.6838 13.488V11.488ZM48.3037 12.7228C47.2758 13.6261 46.8418 14.9272 46.8418 16.432H48.8418C48.8418 15.3074 49.1557 14.6366 49.6239 14.2252L48.3037 12.7228ZM46.8418 16.432V25H48.8418V16.432H46.8418ZM47.8418 24H42.0618V26H47.8418V24ZM68.1339 8.408L67.7312 9.32334L67.7378 9.32621L68.1339 8.408ZM70.8199 10.346L71.6008 9.7213L70.8199 10.346ZM72.0439 12.93L72.3583 13.8793L73.194 13.6025L73.0254 12.7385L72.0439 12.93ZM66.7059 14.698L65.7155 14.8362L65.8813 16.0245L67.0203 15.6473L66.7059 14.698ZM65.8559 12.522L65.0991 13.1756L65.1066 13.1844L65.1144 13.1929L65.8559 12.522ZM61.5379 12.93L60.7323 12.3376L60.7265 12.3454L60.721 12.3533L61.5379 12.93ZM61.6059 20.172L60.8298 20.8026L60.8406 20.8159L60.8518 20.8288L61.6059 20.172ZM66.8759 18.472L67.1809 17.5196L66.0593 17.1604L65.8867 18.3255L66.8759 18.472ZM72.0779 20.138L73.0639 20.3049L73.2086 19.4501L72.3829 19.1856L72.0779 20.138ZM69.5959 23.844L69.0172 23.0285L69.0109 23.033L69.5959 23.844ZM57.3899 23.028L56.7029 23.7548L56.7133 23.7643L57.3899 23.028ZM56.0299 11.74L55.1672 11.2342L55.1608 11.2455L56.0299 11.74ZM59.1919 8.714L59.6571 9.59924L59.6571 9.59924L59.1919 8.714ZM63.8499 8.66C65.4846 8.66 66.7642 8.89782 67.7312 9.32331L68.5367 7.49268C67.237 6.92085 65.6606 6.66 63.8499 6.66V8.66ZM67.7378 9.32621C68.7789 9.77529 69.5283 10.3323 70.0391 10.9707L71.6008 9.7213C70.8422 8.77306 69.801 8.03805 68.53 7.48979L67.7378 9.32621ZM70.0391 10.9707C70.5804 11.6474 70.9143 12.3621 71.0624 13.1215L73.0254 12.7385C72.8109 11.6392 72.3288 10.6313 71.6008 9.7213L70.0391 10.9707ZM71.7295 11.9807L66.3915 13.7487L67.0203 15.6473L72.3583 13.8793L71.7295 11.9807ZM67.6963 14.5598C67.5464 13.4853 67.2167 12.5355 66.5975 11.8511L65.1144 13.1929C65.3565 13.4605 65.5935 13.9614 65.7155 14.8362L67.6963 14.5598ZM66.6128 11.8684C65.9534 11.105 65.0389 10.774 64.0199 10.774V12.774C64.5876 12.774 64.8971 12.9417 65.0991 13.1756L66.6128 11.8684ZM64.0199 10.774C62.664 10.774 61.5152 11.2728 60.7323 12.3376L62.3436 13.5224C62.694 13.0459 63.1999 12.774 64.0199 12.774V10.774ZM60.721 12.3533C59.9976 13.3781 59.7219 14.8445 59.7219 16.568H61.7219C61.7219 14.9822 61.9903 14.0232 62.3549 13.5067L60.721 12.3533ZM59.7219 16.568C59.7219 18.3127 60.0187 19.8043 60.8298 20.8026L62.382 19.5414C62.0145 19.089 61.7219 18.178 61.7219 16.568H59.7219ZM60.8518 20.8288C61.6731 21.7717 62.7756 22.226 64.0539 22.226V20.226C63.2923 20.226 62.7628 19.9776 62.36 19.5152L60.8518 20.8288ZM64.0539 22.226C65.0575 22.226 65.9676 21.9336 66.6649 21.2532C67.3447 20.5897 67.7099 19.6661 67.8651 18.6185L65.8867 18.3255C65.7699 19.1139 65.5288 19.5673 65.268 19.8218C65.0246 20.0594 64.6597 20.226 64.0539 20.226V22.226ZM66.5709 19.4244L71.7729 21.0904L72.3829 19.1856L67.1809 17.5196L66.5709 19.4244ZM71.0919 19.9711C70.8937 21.1423 70.242 22.1593 69.0172 23.0285L70.1747 24.6595C71.7605 23.5341 72.7634 22.0804 73.0639 20.3049L71.0919 19.9711ZM69.0109 23.033C67.8483 23.8716 66.2383 24.34 64.0879 24.34V26.34C66.5163 26.34 68.5782 25.8111 70.1809 24.655L69.0109 23.033ZM64.0879 24.34C61.4916 24.34 59.5201 23.6274 58.0666 22.2917L56.7133 23.7643C58.6144 25.5113 61.1082 26.34 64.0879 26.34V24.34ZM58.0768 22.3013C56.6655 20.9673 55.9079 19.0793 55.9079 16.5H53.9079C53.9079 19.4967 54.805 21.9607 56.703 23.7547L58.0768 22.3013ZM55.9079 16.5C55.9079 14.7754 56.2544 13.3676 56.8991 12.2345L55.1608 11.2455C54.3094 12.7417 53.9079 14.5073 53.9079 16.5H55.9079ZM56.8926 12.2457C57.5697 11.0907 58.4866 10.2142 59.6571 9.59924L58.7268 7.82876C57.2226 8.61911 56.0315 9.75995 55.1672 11.2343L56.8926 12.2457ZM59.6571 9.59924C60.8283 8.98383 62.2163 8.66 63.8499 8.66V6.66C61.9475 6.66 60.2302 7.03883 58.7268 7.82876L59.6571 9.59924ZM75.9669 23.028L75.2803 23.755L75.2853 23.7597L75.9669 23.028ZM74.6409 11.74L73.7745 11.2407L73.7718 11.2455L74.6409 11.74ZM77.7689 8.714L78.2284 9.60223L78.2341 9.59924L77.7689 8.714ZM86.9829 8.714L86.4919 9.58515L86.5013 9.59042L86.5107 9.59548L86.9829 8.714ZM89.8729 11.57L88.9919 12.0431L88.9957 12.05L89.8729 11.57ZM90.7909 16.976L89.7971 16.8656L89.7942 16.8914L89.7927 16.9173L90.7909 16.976ZM90.7229 17.962V18.962H91.6431L91.7195 18.045L90.7229 17.962ZM79.1289 17.962V16.962H77.9853L78.1379 18.0954L79.1289 17.962ZM80.2849 20.512L79.6365 21.2732L79.6448 21.2803L79.6533 21.2872L80.2849 20.512ZM84.7389 20.75L84.1927 19.9124L84.1841 19.918L84.1756 19.9238L84.7389 20.75ZM85.8949 19.322L86.2091 18.3726L85.3216 18.079L84.9688 18.9447L85.8949 19.322ZM90.5189 20.852L91.4698 21.1616L91.7779 20.2153L90.8331 19.9026L90.5189 20.852ZM88.8529 23.334L89.5019 24.0948L89.5037 24.0933L88.8529 23.334ZM86.0649 24.83L85.7667 23.8755L85.7609 23.8773L86.0649 24.83ZM79.1629 14.868L78.1757 14.7088L77.9887 15.868H79.1629V14.868ZM85.3849 14.868V15.868H86.5102L86.378 14.7505L85.3849 14.868ZM82.6989 24.34C80.0518 24.34 78.0744 23.6245 76.6485 22.2963L75.2853 23.7597C77.1688 25.5142 79.6795 26.34 82.6989 26.34V24.34ZM76.6536 22.301C75.2696 20.9939 74.5189 19.1094 74.5189 16.5H72.5189C72.5189 19.5119 73.4003 21.9794 75.2803 23.755L76.6536 22.301ZM74.5189 16.5C74.5189 14.7754 74.8654 13.3676 75.5101 12.2345L73.7718 11.2455C72.9205 12.7417 72.5189 14.5073 72.5189 16.5H74.5189ZM75.5074 12.2393C76.1867 11.0604 77.0913 10.1903 78.2284 9.60222L77.3095 7.82578C75.8172 8.59765 74.6365 9.74491 73.7745 11.2407L75.5074 12.2393ZM78.2341 9.59924C79.4053 8.98383 80.7934 8.66 82.4269 8.66V6.66C80.5245 6.66 78.8072 7.03883 77.3038 7.82876L78.2341 9.59924ZM82.4269 8.66C84.0882 8.66 85.4283 8.98566 86.4919 9.58515L87.474 7.84285C86.0442 7.037 84.347 6.66 82.4269 6.66V8.66ZM86.5107 9.59548C87.6133 10.1861 88.4313 10.9991 88.9919 12.0431L90.7539 11.0969C90 9.69293 88.8913 8.60186 87.4552 7.83252L86.5107 9.59548ZM88.9957 12.05C89.5617 13.0844 89.8589 14.2977 89.8589 15.718H91.8589C91.8589 14.0103 91.4989 12.4583 90.7502 11.09L88.9957 12.05ZM89.8589 15.718C89.8589 16.1136 89.8381 16.496 89.7971 16.8656L91.7848 17.0864C91.8344 16.64 91.8589 16.1838 91.8589 15.718H89.8589ZM89.7927 16.9173C89.7703 17.2975 89.7482 17.6176 89.7264 17.879L91.7195 18.045C91.743 17.7624 91.7663 17.4251 91.7892 17.0347L89.7927 16.9173ZM90.7229 16.962H79.1289V18.962H90.7229V16.962ZM78.1379 18.0954C78.314 19.4039 78.7643 20.5303 79.6365 21.2732L80.9334 19.7508C80.5816 19.4511 80.2612 18.8775 80.12 17.8286L78.1379 18.0954ZM79.6533 21.2872C80.4864 21.9661 81.5334 22.26 82.6989 22.26V20.26C81.8698 20.26 81.3075 20.0552 80.9166 19.7368L79.6533 21.2872ZM82.6989 22.26C83.679 22.26 84.5806 22.0683 85.3023 21.5762L84.1756 19.9238C83.9 20.1117 83.4416 20.26 82.6989 20.26V22.26ZM85.2852 21.5876C85.9878 21.1294 86.4999 20.4875 86.821 19.6993L84.9688 18.9447C84.7913 19.3805 84.5327 19.6906 84.1927 19.9124L85.2852 21.5876ZM85.5808 20.2714L90.2048 21.8014L90.8331 19.9026L86.2091 18.3726L85.5808 20.2714ZM89.5681 20.5424C89.3087 21.339 88.8589 22.0118 88.2022 22.5747L89.5037 24.0933C90.4336 23.2962 91.0945 22.3144 91.4698 21.1616L89.5681 20.5424ZM88.204 22.5732C87.5481 23.1326 86.742 23.5707 85.7667 23.8755L86.3632 25.7845C87.5639 25.4093 88.6165 24.85 89.5019 24.0948L88.204 22.5732ZM85.7609 23.8773C84.7991 24.1843 83.78 24.34 82.6989 24.34V26.34C83.9752 26.34 85.2002 26.1557 86.369 25.7827L85.7609 23.8773ZM82.4269 10.706C81.3077 10.706 80.3068 11.0336 79.5381 11.7783C78.7872 12.5057 78.3664 13.5267 78.1757 14.7088L80.1502 15.0272C80.2995 14.1013 80.5927 13.5413 80.9297 13.2147C81.249 12.9054 81.7102 12.706 82.4269 12.706V10.706ZM79.1629 15.868H85.3849V13.868H79.1629V15.868ZM86.378 14.7505C86.2396 13.58 85.8815 12.5539 85.1887 11.8133C84.4703 11.0454 83.507 10.706 82.4269 10.706V12.706C83.0695 12.706 83.4606 12.8936 83.7282 13.1797C84.0214 13.4931 84.281 14.048 84.3919 14.9855L86.378 14.7505ZM99.1244 0.792H100.124V-0.208H99.1244V0.792ZM99.4984 20.818L98.7121 21.4358L98.7121 21.4358L99.4984 20.818ZM101.606 21.226L101.41 20.2454L101.41 20.2454L101.606 21.226ZM102.422 21.022L103.417 21.1292L103.576 19.6524L102.148 20.0605L102.422 21.022ZM102.048 24.49L102.57 25.3433L102.99 25.0866L103.043 24.5972L102.048 24.49ZM100.45 25.102L100.216 24.1299L100.216 24.1299L100.45 25.102ZM94.5684 24.082L93.8517 24.7794L93.8517 24.7794L94.5684 24.082ZM93.3444 0.792V-0.208H92.3444V0.792H93.3444ZM98.1244 0.792V19.22H100.124V0.792H98.1244ZM98.1244 19.22C98.1244 20.0252 98.248 20.8452 98.7121 21.4358L100.285 20.2002C100.25 20.1562 100.124 19.9108 100.124 19.22H98.1244ZM98.7121 21.4358C99.2262 22.0902 100.007 22.294 100.756 22.294V20.294C100.547 20.294 100.421 20.2652 100.354 20.2397C100.322 20.2276 100.305 20.217 100.297 20.2116C100.29 20.2066 100.287 20.2031 100.285 20.2002L98.7121 21.4358ZM100.756 22.294C101.135 22.294 101.489 22.2693 101.803 22.2066L101.41 20.2454C101.271 20.2734 101.058 20.294 100.756 20.294V22.294ZM101.803 22.2066C102.064 22.1543 102.364 22.0788 102.697 21.9835L102.148 20.0605C101.846 20.1466 101.602 20.2071 101.41 20.2454L101.803 22.2066ZM101.428 20.9148L101.054 24.3828L103.043 24.5972L103.417 21.1292L101.428 20.9148ZM101.527 23.6367C101.236 23.8144 100.81 23.9864 100.216 24.1299L100.685 26.0741C101.405 25.9003 102.045 25.6642 102.57 25.3433L101.527 23.6367ZM100.216 24.1299C99.6303 24.2712 99.063 24.34 98.5124 24.34V26.34C99.2311 26.34 99.9559 26.2501 100.685 26.0741L100.216 24.1299ZM98.5124 24.34C96.8237 24.34 95.8312 23.9459 95.2851 23.3846L93.8517 24.7794C94.9376 25.8954 96.5744 26.34 98.5124 26.34V24.34ZM95.2851 23.3846C94.7361 22.8204 94.3444 21.767 94.3444 19.968H92.3444C92.3444 21.977 92.7687 23.6663 93.8517 24.7794L95.2851 23.3846ZM94.3444 19.968V0.792H92.3444V19.968H94.3444ZM93.3444 1.792H99.1244V-0.208H93.3444V1.792ZM116.639 8.714L116.174 9.59926L116.18 9.60242L116.639 8.714ZM119.801 11.74L118.932 12.2346L118.939 12.2457L119.801 11.74ZM119.801 21.26L118.939 20.7542L118.932 20.7655L119.801 21.26ZM116.639 24.286L116.18 23.3976L116.174 23.4008L116.639 24.286ZM107.255 24.286L106.79 25.1713L106.796 25.1744L107.255 24.286ZM104.093 21.26L103.224 21.7546L103.231 21.7657L104.093 21.26ZM104.093 11.74L103.231 11.2342L103.224 11.2455L104.093 11.74ZM107.255 8.714L106.796 7.82555L106.79 7.82876L107.255 8.714ZM109.601 12.896L108.804 12.2921L108.801 12.296L109.601 12.896ZM109.601 20.104L108.793 20.6922L108.798 20.7001L108.804 20.7079L109.601 20.104ZM114.293 20.104L113.496 19.5001L113.49 19.5079L113.485 19.5158L114.293 20.104ZM114.293 12.896L113.485 13.4842L113.495 13.4981L113.505 13.5116L114.293 12.896ZM111.947 8.66C113.606 8.66 115.005 8.98475 116.174 9.59924L117.105 7.82876C115.599 7.03792 113.87 6.66 111.947 6.66V8.66ZM116.18 9.60242C117.371 10.2174 118.281 11.0902 118.932 12.2345L120.671 11.2455C119.826 9.76044 118.628 8.61595 117.098 7.82557L116.18 9.60242ZM118.939 12.2457C119.602 13.3766 119.957 14.7802 119.957 16.5H121.957C121.957 14.5025 121.543 12.7327 120.664 11.2343L118.939 12.2457ZM119.957 16.5C119.957 18.2198 119.602 19.6234 118.939 20.7543L120.664 21.7657C121.543 20.2673 121.957 18.4975 121.957 16.5H119.957ZM118.932 20.7655C118.281 21.9098 117.371 22.7826 116.18 23.3976L117.098 25.1744C118.628 24.3841 119.826 23.2396 120.671 21.7545L118.932 20.7655ZM116.174 23.4008C115.005 24.0153 113.606 24.34 111.947 24.34V26.34C113.87 26.34 115.599 25.9621 117.105 25.1712L116.174 23.4008ZM111.947 24.34C110.314 24.34 108.912 24.0163 107.714 23.3976L106.796 25.1744C108.319 25.961 110.045 26.34 111.947 26.34V24.34ZM107.721 23.4008C106.55 22.7858 105.633 21.9093 104.956 20.7543L103.231 21.7657C104.095 23.2401 105.286 24.3809 106.79 25.1712L107.721 23.4008ZM104.963 20.7655C104.318 19.6324 103.971 18.2246 103.971 16.5H101.971C101.971 18.4927 102.373 20.2583 103.224 21.7545L104.963 20.7655ZM103.971 16.5C103.971 14.7754 104.318 13.3676 104.963 12.2345L103.224 11.2455C102.373 12.7417 101.971 14.5073 101.971 16.5H103.971ZM104.956 12.2457C105.633 11.0907 106.55 10.2142 107.721 9.59924L106.79 7.82876C105.286 8.61911 104.095 9.75995 103.231 11.2343L104.956 12.2457ZM107.714 9.60242C108.912 8.98368 110.314 8.66 111.947 8.66V6.66C110.045 6.66 108.319 7.03898 106.796 7.82557L107.714 9.60242ZM111.947 10.774C110.66 10.774 109.573 11.2769 108.804 12.2921L110.399 13.4999C110.763 13.0191 111.24 12.774 111.947 12.774V10.774ZM108.801 12.296C108.057 13.2891 107.785 14.766 107.785 16.5H109.785C109.785 14.8793 110.058 13.9536 110.401 13.496L108.801 12.296ZM107.785 16.5C107.785 18.2194 108.06 19.684 108.793 20.6922L110.41 19.5158C110.055 19.028 109.785 18.0899 109.785 16.5H107.785ZM108.804 20.7079C109.573 21.7231 110.66 22.226 111.947 22.226V20.226C111.24 20.226 110.763 19.9809 110.399 19.5001L108.804 20.7079ZM111.947 22.226C113.249 22.226 114.349 21.7283 115.102 20.6922L113.485 19.5158C113.15 19.9757 112.686 20.226 111.947 20.226V22.226ZM115.091 20.7079C115.857 19.6967 116.143 18.2248 116.143 16.5H114.143C114.143 18.0846 113.864 19.0153 113.496 19.5001L115.091 20.7079ZM116.143 16.5C116.143 14.7608 115.86 13.2763 115.081 12.2804L113.505 13.5116C113.861 13.9664 114.143 14.8846 114.143 16.5H116.143ZM115.102 12.3078C114.349 11.2717 113.249 10.774 111.947 10.774V12.774C112.686 12.774 113.15 13.0243 113.485 13.4842L115.102 12.3078ZM125.943 24.524L125.579 25.4555L125.592 25.4603L125.943 24.524ZM122.305 22.11L121.543 21.4619L120.965 22.1412L121.574 22.7929L122.305 22.11ZM125.025 18.914L125.813 18.2984L125.058 17.3321L124.263 18.2659L125.025 18.914ZM127.269 20.75L126.796 21.6312L126.809 21.638L126.822 21.6444L127.269 20.75ZM132.165 21.158L132.575 22.0699L132.575 22.0699L132.165 21.158ZM132.505 19.458L131.836 20.2013L131.836 20.2013L132.505 19.458ZM131.145 18.948L130.949 19.9286L130.949 19.9286L131.145 18.948ZM128.765 18.472L128.567 19.4522L128.569 19.4526L128.765 18.472ZM124.209 16.568L123.511 17.2842L123.52 17.2933L123.53 17.3021L124.209 16.568ZM123.733 10.55L122.904 9.99014L122.904 9.99014L123.733 10.55ZM126.351 8.476L125.932 7.56804L126.351 8.476ZM138.557 10.584L139.308 11.2448L139.871 10.6049L139.328 9.94735L138.557 10.584ZM135.803 13.712L135.022 14.3367L135.766 15.2669L136.554 14.3728L135.803 13.712ZM133.695 12.114L133.287 13.0268L133.287 13.0268L133.695 12.114ZM129.037 13.576L128.397 14.3442L128.412 14.3567L128.427 14.3686L129.037 13.576ZM130.635 14.12L130.829 13.139L130.819 13.137L130.809 13.1352L130.635 14.12ZM133.729 14.732L133.535 15.713L133.538 15.7135L133.729 14.732ZM137.503 16.5L136.767 17.1767L136.776 17.1866L137.503 16.5ZM136.653 23.674L137.298 24.4379L137.299 24.4369L136.653 23.674ZM130.669 24.34C129.077 24.34 127.622 24.0857 126.294 23.5877L125.592 25.4603C127.165 26.0503 128.861 26.34 130.669 26.34V24.34ZM126.307 23.5925C124.983 23.0752 123.899 22.3509 123.035 21.4271L121.574 22.7929C122.66 23.9545 124.002 24.8394 125.579 25.4555L126.307 23.5925ZM123.066 22.7581L125.786 19.5621L124.263 18.2659L121.543 21.4619L123.066 22.7581ZM124.237 19.5296C124.901 20.3793 125.762 21.0764 126.796 21.6312L127.742 19.8688C126.917 19.4263 126.283 18.8994 125.813 18.2984L124.237 19.5296ZM126.822 21.6444C127.924 22.1957 129.133 22.464 130.431 22.464V20.464C129.417 20.464 128.518 20.2563 127.716 19.8556L126.822 21.6444ZM130.431 22.464C131.221 22.464 131.951 22.3508 132.575 22.0699L131.755 20.2461C131.472 20.3732 131.047 20.464 130.431 20.464V22.464ZM132.575 22.0699C132.92 21.9149 133.248 21.6853 133.489 21.3482C133.736 21.0023 133.845 20.607 133.845 20.206H131.845C131.845 20.2253 131.843 20.2273 131.845 20.2177C131.849 20.2072 131.854 20.1952 131.861 20.1858C131.875 20.166 131.863 20.1971 131.755 20.2461L132.575 22.0699ZM133.845 20.206C133.845 19.6168 133.603 19.1008 133.174 18.7147L131.836 20.2013C131.848 20.2122 131.853 20.2185 131.854 20.2195C131.854 20.2203 131.852 20.2176 131.85 20.2118C131.847 20.206 131.845 20.2007 131.845 20.1975C131.844 20.1945 131.845 20.1967 131.845 20.206H133.845ZM133.174 18.7147C132.929 18.4945 132.629 18.3473 132.346 18.2412C132.053 18.1311 131.713 18.0419 131.341 17.9674L130.949 19.9286C131.257 19.9901 131.484 20.0539 131.644 20.1138C131.814 20.1777 131.854 20.2175 131.836 20.2013L133.174 18.7147ZM131.341 17.9674L128.961 17.4914L128.569 19.4526L130.949 19.9286L131.341 17.9674ZM128.963 17.4918C126.893 17.0735 125.592 16.4855 124.888 15.8339L123.53 17.3021C124.639 18.3278 126.375 19.0092 128.567 19.4522L128.963 17.4918ZM124.907 15.8518C124.24 15.2021 123.883 14.3505 123.883 13.202H121.883C121.883 14.8188 122.41 16.2112 123.511 17.2842L124.907 15.8518ZM123.883 13.202C123.883 12.49 124.096 11.7986 124.562 11.1099L122.904 9.99014C122.236 10.9787 121.883 12.0553 121.883 13.202H123.883ZM124.562 11.1099C125.001 10.4596 125.711 9.87273 126.77 9.38396L125.932 7.56804C124.634 8.16726 123.598 8.9631 122.904 9.99014L124.562 11.1099ZM126.77 9.38396C127.775 8.92029 129.126 8.66 130.873 8.66V6.66C128.948 6.66 127.285 6.9437 125.932 7.56804L126.77 9.38396ZM130.873 8.66C134.21 8.66 136.432 9.58143 137.786 11.2206L139.328 9.94735C137.463 7.6879 134.563 6.66 130.873 6.66V8.66ZM137.806 9.92319L135.052 13.0512L136.554 14.3728L139.308 11.2448L137.806 9.92319ZM136.584 13.0873C135.932 12.2728 135.098 11.646 134.103 11.2012L133.287 13.0268C134.015 13.3527 134.586 13.7912 135.022 14.3367L136.584 13.0873ZM134.103 11.2012C133.126 10.7639 132.126 10.536 131.111 10.536V12.536C131.819 12.536 132.541 12.6934 133.287 13.0268L134.103 11.2012ZM131.111 10.536C130.232 10.536 129.422 10.6421 128.797 10.9585C128.471 11.124 128.168 11.3611 127.949 11.6941C127.726 12.0328 127.629 12.4121 127.629 12.794H129.629C129.629 12.7566 129.635 12.7689 129.62 12.7931C129.607 12.8117 129.614 12.7866 129.702 12.7425C129.905 12.6396 130.336 12.536 131.111 12.536V10.536ZM127.629 12.794C127.629 13.4456 127.947 13.9698 128.397 14.3442L129.677 12.8078C129.622 12.7622 129.613 12.7398 129.618 12.7479C129.62 12.752 129.623 12.7599 129.626 12.7708C129.628 12.7816 129.629 12.79 129.629 12.794H127.629ZM128.427 14.3686C128.927 14.7534 129.67 14.9652 130.461 15.1048L130.809 13.1352C130.058 13.0028 129.736 12.8519 129.647 12.7834L128.427 14.3686ZM130.441 15.101L133.535 15.713L133.923 13.751L130.829 13.139L130.441 15.101ZM133.538 15.7135C135.183 16.0341 136.201 16.5613 136.767 17.1766L138.239 15.8234C137.263 14.7613 135.765 14.1099 133.92 13.7505L133.538 15.7135ZM136.776 17.1866C137.362 17.807 137.659 18.5545 137.659 19.492H139.659C139.659 18.0721 139.185 16.825 138.23 15.8134L136.776 17.1866ZM137.659 19.492C137.659 20.8334 137.135 21.9549 136.006 22.9111L137.299 24.4369C138.846 23.1264 139.659 21.4599 139.659 19.492H137.659ZM136.008 22.9101C134.95 23.8037 133.232 24.34 130.669 24.34V26.34C133.455 26.34 135.727 25.7657 137.298 24.4379L136.008 22.9101Z" fill="#660F85"/>
</svg>
